<?xml version="1.0" encoding="UTF-8"?>
<svg xmlns="http://www.w3.org/2000/svg" xmlns:xlink="http://www.w3.org/1999/xlink" width="150px" height="162px" viewBox="0 0 150 40" version="1.1">
<g id="surface1">
<path style=" stroke:none;fill-rule:nonzero;fill:rgb(8.627451%,7.45098%,7.058824%);fill-opacity:1;" d="M 28.90625 17.15625 L 16.292969 17.15625 C 15.96875 17.15625 15.703125 17.417969 15.703125 17.738281 L 15.703125 23.828125 C 15.703125 24.148438 15.96875 24.410156 16.292969 24.410156 L 21.214844 24.410156 L 21.214844 31.976562 C 21.214844 31.976562 20.109375 32.347656 17.054688 32.347656 C 13.453125 32.347656 8.417969 31.050781 8.417969 20.117188 C 8.417969 9.183594 13.660156 7.746094 18.582031 7.746094 C 22.839844 7.746094 24.675781 8.484375 25.84375 8.84375 C 26.210938 8.953125 26.546875 8.59375 26.546875 8.269531 L 27.957031 2.386719 C 27.957031 2.238281 27.902344 2.054688 27.730469 1.933594 C 27.257812 1.597656 24.363281 0 17.054688 0 C 8.636719 0 0 3.539062 0 20.542969 C 0 37.550781 9.886719 40.085938 18.21875 40.085938 C 25.117188 40.085938 29.304688 37.171875 29.304688 37.171875 C 29.476562 37.078125 29.496094 36.839844 29.496094 36.730469 L 29.496094 17.738281 C 29.496094 17.417969 29.230469 17.15625 28.90625 17.15625 "/>
<path style=" stroke:none;fill-rule:nonzero;fill:rgb(8.627451%,7.45098%,7.058824%);fill-opacity:1;" d="M 93.898438 2.039062 C 93.898438 1.714844 93.636719 1.453125 93.3125 1.453125 L 86.210938 1.453125 C 85.886719 1.453125 85.625 1.714844 85.625 2.039062 C 85.625 2.039062 85.625 15.589844 85.625 15.589844 L 74.558594 15.589844 L 74.558594 2.039062 C 74.558594 1.714844 74.296875 1.453125 73.972656 1.453125 L 66.871094 1.453125 C 66.546875 1.453125 66.285156 1.714844 66.285156 2.039062 L 66.285156 38.734375 C 66.285156 39.058594 66.546875 39.324219 66.871094 39.324219 L 73.972656 39.324219 C 74.296875 39.324219 74.558594 39.058594 74.558594 38.734375 L 74.558594 23.039062 L 85.625 23.039062 C 85.625 23.039062 85.605469 38.734375 85.605469 38.734375 C 85.605469 39.058594 85.871094 39.324219 86.195312 39.324219 L 93.3125 39.324219 C 93.636719 39.324219 93.898438 39.058594 93.898438 38.734375 L 93.898438 2.039062 "/>
<path style=" stroke:none;fill-rule:nonzero;fill:rgb(8.627451%,7.45098%,7.058824%);fill-opacity:1;" d="M 42.304688 6.851562 C 42.304688 4.328125 40.253906 2.289062 37.726562 2.289062 C 35.199219 2.289062 33.148438 4.328125 33.148438 6.851562 C 33.148438 9.375 35.199219 11.421875 37.726562 11.421875 C 40.253906 11.421875 42.304688 9.375 42.304688 6.851562 "/>
<path style=" stroke:none;fill-rule:nonzero;fill:rgb(8.627451%,7.45098%,7.058824%);fill-opacity:1;" d="M 41.796875 30.996094 C 41.796875 30.054688 41.796875 14.054688 41.796875 14.054688 C 41.796875 13.734375 41.535156 13.46875 41.210938 13.46875 L 34.132812 13.46875 C 33.804688 13.46875 33.515625 13.800781 33.515625 14.121094 C 33.515625 14.121094 33.515625 34.507812 33.515625 38.390625 C 33.515625 39.105469 33.964844 39.316406 34.546875 39.316406 C 34.546875 39.316406 37.570312 39.316406 40.925781 39.316406 C 41.625 39.316406 41.796875 38.980469 41.796875 38.382812 C 41.796875 37.082031 41.796875 31.984375 41.796875 30.996094 "/>
<path style=" stroke:none;fill-rule:nonzero;fill:rgb(8.627451%,7.45098%,7.058824%);fill-opacity:1;" d="M 120.886719 13.523438 L 113.839844 13.523438 C 113.515625 13.523438 113.253906 13.789062 113.253906 14.113281 L 113.253906 32.105469 C 113.253906 32.105469 111.460938 33.398438 108.921875 33.398438 C 106.378906 33.398438 105.707031 32.261719 105.707031 29.804688 C 105.707031 27.34375 105.707031 14.113281 105.707031 14.113281 C 105.707031 13.789062 105.445312 13.523438 105.121094 13.523438 L 97.96875 13.523438 C 97.644531 13.523438 97.382812 13.789062 97.382812 14.113281 C 97.382812 14.113281 97.382812 23.695312 97.382812 30.992188 C 97.382812 38.289062 101.5 40.078125 107.164062 40.078125 C 111.8125 40.078125 115.5625 37.539062 115.5625 37.539062 C 115.5625 37.539062 115.738281 38.875 115.820312 39.035156 C 115.902344 39.191406 116.109375 39.351562 116.339844 39.351562 L 120.886719 39.332031 C 121.210938 39.332031 121.476562 39.070312 121.476562 38.746094 L 121.472656 14.113281 C 121.472656 13.789062 121.210938 13.523438 120.886719 13.523438 "/>
<path style=" stroke:none;fill-rule:nonzero;fill:rgb(8.627451%,7.45098%,7.058824%);fill-opacity:1;" d="M 137.363281 33.378906 C 134.921875 33.304688 133.261719 32.207031 133.261719 32.207031 L 133.261719 20.585938 C 133.261719 20.585938 134.898438 19.597656 136.90625 19.421875 C 139.441406 19.195312 141.886719 19.953125 141.886719 25.929688 C 141.886719 32.234375 140.785156 33.480469 137.363281 33.378906 Z M 140.144531 12.699219 C 136.140625 12.699219 133.417969 14.464844 133.417969 14.464844 L 133.417969 2.039062 C 133.417969 1.714844 133.15625 1.453125 132.832031 1.453125 L 125.710938 1.453125 C 125.390625 1.453125 125.125 1.714844 125.125 2.039062 L 125.125 38.734375 C 125.125 39.058594 125.390625 39.324219 125.714844 39.324219 C 125.714844 39.324219 130.652344 39.324219 130.65625 39.324219 C 130.875 39.324219 131.046875 39.210938 131.167969 39.011719 C 131.292969 38.816406 131.46875 37.320312 131.46875 37.320312 C 131.46875 37.320312 134.382812 40.046875 139.894531 40.046875 C 146.363281 40.046875 150.078125 36.804688 150.078125 25.492188 C 150.078125 14.179688 144.148438 12.699219 140.144531 12.699219 "/>
<path style=" stroke:none;fill-rule:nonzero;fill:rgb(8.627451%,7.45098%,7.058824%);fill-opacity:1;" d="M 62.207031 13.464844 L 56.878906 13.464844 C 56.878906 13.464844 56.871094 6.519531 56.871094 6.515625 C 56.871094 6.253906 56.734375 6.121094 56.425781 6.121094 L 49.167969 6.121094 C 48.886719 6.121094 48.734375 6.246094 48.734375 6.511719 L 48.734375 13.695312 C 48.734375 13.695312 45.097656 14.5625 44.851562 14.632812 C 44.605469 14.703125 44.425781 14.925781 44.425781 15.191406 L 44.425781 19.703125 C 44.425781 20.027344 44.6875 20.289062 45.011719 20.289062 L 48.734375 20.289062 C 48.734375 20.289062 48.734375 25.011719 48.734375 31.148438 C 48.734375 39.214844 54.460938 40.003906 58.324219 40.003906 C 60.09375 40.003906 62.203125 39.445312 62.554688 39.316406 C 62.765625 39.242188 62.886719 39.027344 62.886719 38.792969 L 62.890625 33.828125 C 62.890625 33.503906 62.617188 33.242188 62.304688 33.242188 C 61.992188 33.242188 61.199219 33.367188 60.382812 33.367188 C 57.765625 33.367188 56.878906 32.164062 56.878906 30.609375 C 56.878906 29.054688 56.878906 20.289062 56.878906 20.289062 L 62.207031 20.289062 C 62.53125 20.289062 62.792969 20.027344 62.792969 19.703125 L 62.792969 14.050781 C 62.792969 13.726562 62.53125 13.464844 62.207031 13.464844 "/>
</g>
</svg>
